<?xml version="1.0" encoding="utf-8"?>
<!-- Generator: Adobe Illustrator 24.1.2, SVG Export Plug-In . SVG Version: 6.00 Build 0)  -->
<svg version="1.1" id="Layer_1" xmlns="http://www.w3.org/2000/svg" xmlns:xlink="http://www.w3.org/1999/xlink" x="0px" y="0px"
	 viewBox="0 0 93 40" style="enable-background:new 0 0 93 40;" xml:space="preserve">
<style type="text/css">
	.st0{fill:#3B413A;}
	.st1{fill:#D6E5D8;}
	.st2{fill:none;}
	.st3{opacity:0.74;}
	.st4{font-family:'Corbel';}
	.st5{font-size:18px;}
</style>
<path class="st0" d="M44.8,32c0,1.3-0.3,2.3-0.9,2.9c-0.6,0.7-1.5,1-2.5,1c-1,0-1.8-0.3-2.4-0.9c-0.6-0.6-0.9-1.5-0.9-2.7v-6.2h-1.4
	v6.4c0,1.5,0.4,2.7,1.2,3.5c0.8,0.8,1.9,1.2,3.2,1.2c0.8,0,1.6-0.2,2.2-0.5c0.7-0.4,1.2-0.9,1.5-1.6V37h1.4V26.1h-1.4V32z"/>
<rect x="49.4" y="26.1" class="st0" width="1.4" height="10.9"/>
<path class="st0" d="M24.7,24.8c0.8-0.5,1.8-0.7,2.8-0.7c1.2,0,2.1,0.3,3,0.8c0.8,0.5,1.4,1.3,1.8,2.2H34c-0.5-1.3-1.3-2.4-2.4-3.1
	c-1.1-0.7-2.4-1.1-4-1.1c-1.3,0-2.4,0.3-3.5,0.9c-1,0.6-1.9,1.4-2.5,2.5c-0.6,1.1-0.9,2.3-0.9,3.7s0.3,2.6,0.9,3.7s1.4,1.9,2.5,2.5
	c1,0.6,2.2,0.9,3.5,0.9c1.5,0,2.9-0.4,4-1.1c1.1-0.7,1.9-1.8,2.4-3.1h-1.6c-0.4,0.9-1,1.7-1.8,2.2c-0.8,0.5-1.8,0.8-3,0.8
	c-1,0-2-0.2-2.8-0.7c-0.8-0.5-1.5-1.2-1.9-2.1c-0.5-0.9-0.7-1.9-0.7-3.1s0.2-2.2,0.7-3.1C23.3,26,23.9,25.3,24.7,24.8z"/>
<path class="st0" d="M73.9,25.9c-0.8,0-1.6,0.2-2.2,0.5c-0.7,0.3-1.2,0.9-1.5,1.5v-1.9h-1.4V37h1.4v-6c0-1.3,0.3-2.3,0.9-2.9
	c0.6-0.7,1.5-1,2.5-1c1,0,1.8,0.3,2.4,0.9c0.6,0.6,0.9,1.5,0.9,2.7V37h1.4v-6.4c0-1.5-0.4-2.7-1.2-3.5
	C76.2,26.3,75.2,25.9,73.9,25.9z"/>
<path class="st0" d="M91.3,31c0-0.9-0.2-1.8-0.6-2.5c-0.4-0.8-1-1.4-1.8-1.8c-0.8-0.5-1.7-0.7-2.7-0.7c-1,0-2,0.2-2.8,0.7
	c-0.8,0.5-1.4,1.1-1.9,2c-0.5,0.9-0.7,1.8-0.7,3s0.2,2.1,0.7,3c0.5,0.8,1.1,1.5,1.9,2c0.8,0.5,1.7,0.7,2.8,0.7c1.3,0,2.4-0.3,3.3-1
	c0.9-0.7,1.5-1.6,1.7-2.6h-1.5c-0.2,0.7-0.6,1.3-1.2,1.8C87.8,35.8,87,36,86.1,36c-0.7,0-1.3-0.1-1.9-0.4c-0.6-0.3-1.1-0.8-1.4-1.3
	c-0.4-0.6-0.6-1.3-0.6-2.1h9.1C91.3,31.8,91.3,31.5,91.3,31z M82.2,30.9c0.1-1.2,0.5-2.2,1.2-2.8c0.7-0.7,1.6-1,2.7-1
	c0.7,0,1.3,0.1,1.9,0.4c0.6,0.3,1,0.7,1.4,1.3c0.3,0.6,0.5,1.3,0.5,2.1H82.2z"/>
<path class="st0" d="M59.8,31.7c-0.5-0.2-1.1-0.4-1.9-0.6c-0.7-0.2-1.2-0.4-1.6-0.5c-0.4-0.2-0.7-0.4-1-0.6
	c-0.3-0.3-0.4-0.6-0.4-1.1c0-0.5,0.2-0.9,0.7-1.2s1-0.5,1.7-0.5c0.8,0,1.4,0.2,1.9,0.6c0.5,0.4,0.7,0.9,0.8,1.5h1.4
	c-0.1-1-0.4-1.9-1.2-2.4c-0.7-0.6-1.7-0.9-2.8-0.9c-0.7,0-1.4,0.1-2,0.4c-0.6,0.3-1,0.6-1.4,1.1c-0.3,0.5-0.5,0.9-0.5,1.5
	c0,0.7,0.2,1.3,0.5,1.7c0.4,0.4,0.8,0.7,1.3,0.9c0.5,0.2,1.2,0.4,2,0.6c0.6,0.2,1.1,0.3,1.5,0.5c0.4,0.1,0.7,0.3,0.9,0.6
	s0.4,0.5,0.4,0.9c0,0.5-0.2,1-0.7,1.3c-0.4,0.4-1,0.5-1.8,0.5c-0.9,0-1.6-0.2-2.1-0.6c-0.5-0.4-0.8-0.9-0.9-1.5h-1.4
	c0.1,1,0.5,1.8,1.3,2.4c0.8,0.6,1.8,0.9,3.1,0.9c0.7,0,1.4-0.1,2-0.4c0.6-0.3,1-0.6,1.3-1.1c0.3-0.5,0.5-1,0.5-1.6
	c0-0.6-0.2-1.2-0.5-1.5S60.3,31.9,59.8,31.7z"/>
<rect x="64.2" y="26.1" class="st0" width="1.4" height="10.9"/>
<path class="st0" d="M10.2,28.7c0,4.5,0.2,7.1,0.5,7.7c0.6,1.1,2.7,1.5,3.9,1.6l0,0c0.5,0.1,1.6,0.2,1.6,0.6c0,0.1,0,0.1,0,0.2
	c0,0-0.1,0-0.4,0c-0.1,0-0.2,0-0.3,0c-0.1,0-0.2,0-0.3,0H9.8H4.1c-0.1,0-0.2,0-0.3,0c-0.1,0-0.2,0-0.3,0c-0.3,0-0.4,0-0.4,0
	c0,0,0-0.1,0-0.2c0-0.4,1.1-0.5,1.6-0.6l0,0c1.2-0.1,3.4-0.5,3.9-1.6c0.1-0.2,0.5-0.9,0.6-7.7c0-1.6,0-3.3,0-4.7
	c0-2.2-0.1-2.4-0.2-2.5c-0.1-0.2-0.2-0.3-0.4-0.3c-2.2-0.4-4.5-1.7-6.2-3.5c-1.8-2-2.7-4.2-2.4-6.4C0.3,9,2.5,2.2,3.3,1.2h12.9
	c0.8,1,3,7.8,3.2,10c0.5,4.6-4.1,9.1-8.5,9.9c-0.2,0-0.3,0.2-0.4,0.4C10.2,22.1,10.2,28.4,10.2,28.7z"/>
<path class="st1" d="M16.1,16.6c0.8-1,1.4-1.9,1.5-3c0-0.1,0-0.4-0.3-0.4c-4.3-2-11.5,2.7-15.3,0c-0.3,0-0.3,0.3-0.3,0.4
	c0.1,1.2,0.7,2.1,1.5,3.1c1.3,1.7,3.1,2.8,5,2.9c0.3,0,0.9,0,1.4,0c0.5,0,1,0,1.3,0C13,19.5,14.8,18.4,16.1,16.6z"/>
<rect x="23.3" y="2.6" class="st2" width="67" height="19.2"/>
<text transform="matrix(1 0 0 1 23.2559 15.3434)" class="st3 st4 st5">Tuna’s</text>
</svg>
